<?xml version="1.0" encoding="UTF-8"?>
<!DOCTYPE svg PUBLIC "-//W3C//DTD SVG 1.1//EN" "http://www.w3.org/Graphics/SVG/1.1/DTD/svg11.dtd">
<!-- Creator: CorelDRAW 2019 (64-Bit) -->
<svg xmlns="http://www.w3.org/2000/svg" xml:space="preserve" width="180.622mm" height="180.622mm" version="1.1" style="shape-rendering:geometricPrecision; text-rendering:geometricPrecision; image-rendering:optimizeQuality; fill-rule:evenodd; clip-rule:evenodd"
viewBox="0 0 18950.56 18950.56"
 xmlns:xlink="http://www.w3.org/1999/xlink"
 xmlns:xodm="http://www.corel.com/coreldraw/odm/2003">
 <defs>
  <style type="text/css">
   <![CDATA[
    .fil0 {fill:url(#id0)}
    .fil1 {fill:url(#id1);fill-rule:nonzero}
   ]]>
  </style>
  <linearGradient id="id0" gradientUnits="objectBoundingBox" x1="0%" y1="50%" x2="99.8288%" y2="50%">
   <stop offset="0" style="stop-opacity:1; stop-color:#80D8FF"/>
   <stop offset="1" style="stop-opacity:1; stop-color:#EA80FC"/>
  </linearGradient>
  <linearGradient id="id1" gradientUnits="userSpaceOnUse" xlink:href="#id0" x1="6118.14" y1="10481.81" x2="12826.83" y2="8684.23">
  </linearGradient>
 </defs>
 <g id="Capa_x0020_1">
  <metadata id="CorelCorpID_0Corel-Layer"/>
  <path class="fil0" d="M13028.12 18233.36c466.42,-6.39 1984.77,-1052.92 2466.98,-1442.59 701.84,-567.14 1354.84,-1292.36 1881.61,-2078.67 350.45,-523.11 658.69,-1095.18 917.25,-1750.63 157.1,-458.08 311.28,-882.49 422.27,-1387.25 56.71,-257.91 105.62,-513.45 142.76,-782.65 29.05,-210.65 36.11,-670.02 91.56,-824.08l0 -1051.01c-46.19,-125.96 -89.53,-769.6 -125.43,-985.96 -334.26,-2014.2 -1274.6,-3778.13 -2651.21,-5153.9 -1150.91,-1150.21 -2550.37,-1999.84 -4242.38,-2458.08 -622.32,-168.55 -1908.04,-311.27 -1929.14,-318.54l-1247.17 0 -64.13 21.7c-46.31,11.12 -52.3,13.75 -103.38,21.5 -1220.91,185.21 -1229.06,121.94 -2598.04,613.12 -1464.22,625.43 -2349.78,1260.4 -3253.86,2153.31 -397.39,392.49 -856.98,956.11 -1204.51,1496.75 -169.47,263.66 -887.51,1474.31 -887.58,1804.44 -132.98,128.88 -184.37,420.87 -242.4,619.84 -65.41,224.25 -121.3,415.87 -172.14,644.86 -62.72,282.48 -171.9,1277.94 -229.19,1410.32l0 1216.85c46.62,137.59 86.54,787.95 125.05,1017.49 425.15,2534.11 1829.13,4739.13 3852.93,6173.48 464.19,328.99 855.24,549.88 1397.15,824.77 735.57,373.15 1683.87,662.59 2527.64,802.93 252.69,42.03 798.01,60.14 980.71,129.21l1279.88 0c111.62,-48.54 1247.4,-191.54 1531.73,-257.37 204.34,-47.32 1168.12,-286.99 1333.02,-459.83zm-11951.3 -11657.12c389.79,-999.42 690.5,-1625.36 1311.33,-2448.82 90.75,-120.37 481.03,-628.22 609.89,-696.65 390.6,266.31 777.57,1010.07 1110.69,677.97 242.09,-241.35 -92.3,-507.51 -200.03,-614.89 -89.36,-89.07 -151.06,-151.73 -240.54,-240.6 -102.17,-101.49 -191.34,-148.63 -242.76,-306.26 136.89,-73.97 202.57,-148.49 331.27,-262.96 450.89,-401.04 1273.37,-920.21 1835.78,-1197.49l847.87 -390.23c125.45,2.07 1010.24,-273.47 1284.97,-327.75 494.49,-97.7 929.65,-147.38 1447.77,-170.22 24.78,372.99 6.74,799.42 6.89,1178.27 0.13,338.15 -105.9,924.57 295.36,923.46 390.08,-1.09 295.51,-552.07 295.55,-886.44 0.05,-389.77 -18.89,-831.58 6.96,-1215.01 1844.72,88.43 3806.71,741.03 5189.57,1904.22l426.31 350.55c24.73,20.24 37.39,28.28 60.15,52.71 63.53,68.18 27.14,17.32 66.31,91.93 -265.94,392.14 -1008.32,774.94 -675.33,1107.75 363.22,363.02 805.28,-568.99 1158.71,-680.43 58.43,105.81 123.25,181.95 209.21,275.18 1306.67,1417.21 2041.07,3525.21 2139.21,5472.22 -372.18,25.09 -799.78,6.89 -1177.99,6.94 -337.66,0.04 -923.99,-101.42 -923.71,295.49 0.28,394.37 551.84,295.3 886.7,295.43 390.43,0.15 831.03,-18.63 1215.29,6.9 -25.23,514.96 -70.46,963.35 -168.95,1447.32 -56.35,276.93 -330.7,1150.97 -329.43,1283.54 -103.07,102.42 -316.51,698.85 -390.13,849.55 -133.37,273.02 -292.18,554.57 -437.61,781.85 -214.03,334.49 -505.34,760.96 -760.47,1056.51 -94.68,109.68 -181.93,183.15 -262.18,328.69 -157.37,-50.83 -204.95,-140.43 -306.32,-242.4 -258.57,-260.12 -589.8,-707.66 -855.53,-440.95 -241.54,242.41 93.69,506.8 201.3,614.05 156.55,156.04 357.36,319.66 477.25,496.85 -47.82,90.3 -8.74,36.52 -85.91,110.41 -740.48,709.01 -1895.53,1353.88 -2850.41,1731.91 -967.68,328.69 -1699.1,501.39 -2804.57,555.65 -27.06,-380.01 -6.56,-826.3 -6.42,-1213.55 0.13,-334.42 100.17,-889.33 -297.6,-889.21 -399.92,0.12 -297.54,589.06 -297.34,926.23 0.22,376.01 19.72,807.56 -6.35,1176.78 -1220.01,-58.06 -2300.29,-305.02 -3296.92,-759.09 -507.67,-231.3 -885.64,-439.42 -1311.39,-723.99 -143.22,-95.73 -1038.09,-735.13 -1133.17,-915.13 265.65,-389.94 1006.63,-776.89 675.62,-1107.61 -332.84,-332.55 -713.42,407.99 -1107.65,675.22 -119.98,-63.26 -155.5,-153.43 -261.17,-269.26 -510.22,-559.28 -1075.51,-1472.89 -1377.78,-2175.33 -457.92,-1064.15 -696.56,-2006.15 -759.37,-3296.64 381.17,-26.46 825.84,-6.46 1213.9,-6.24 333.29,0.2 887.68,95.54 889.01,-297.35 1.37,-408.16 -589.84,-297.7 -926.03,-297.58 -376.7,0.13 -806.53,19.39 -1176.71,-6.25 52.38,-1034.74 207,-1675.02 476.92,-2595.24z"/>
  <path class="fil0" d="M14677.33 10548.98c-161.16,557.09 -225.39,831.3 -471.24,1324.76 -209.42,420.3 -439.51,751.99 -713.69,1062.82 -524.75,594.92 -1110.06,1084.75 -2064.92,1480.1 -1125.55,371.04 -2076.29,518.67 -3309.89,192.01 -868.75,-230.04 -1777.82,-746.06 -2402.21,-1373.45 -1449.05,-1455.99 -1957.13,-3744.63 -1191.01,-5678.74 166.65,-439.62 393.03,-832.86 636.75,-1174.12 307.58,-430.67 537.94,-636.98 890.19,-960.23 520.02,-477.21 1393.78,-915.57 2123.87,-1096.14 365.23,-90.32 736.88,-146.96 1114.97,-159.2 1482.83,-48.02 2973.38,538.53 3983.46,1583.94 965.67,999.45 1821.52,2773.38 1403.71,4798.26zm-2126 3963.95c760.25,-475.45 1366.74,-1053.63 1860.58,-1804.65 158.13,-240.48 304.62,-494.15 438.62,-781.5 1880.47,-4032.51 -1346.07,-8559.5 -5785.67,-8339.84 -1226.6,79.45 -2677.07,654.03 -3475.55,1447.08 -564.74,560.91 -667.07,608.06 -1138.36,1341.63 -943.06,1467.93 -1147.43,3343.65 -568.02,4990.45 619.32,1760.2 1919.56,3074.01 3675.54,3690.37 1653.04,580.24 3509.11,384.4 4992.87,-543.55z"/>
  <path class="fil1" d="M9712.46 11572.19c18.49,69.03 31.97,129.02 38.89,179.08 6.92,50.07 7.62,91.42 5.15,125.82 -4,33.52 -13.89,59.54 -28.5,77.73 -15.81,18.51 -35.98,30.41 -58.99,36.57l-2641.33 707.74c-52.08,13.95 -98.18,21.12 -138.32,21.49 -40.14,0.38 -76.5,-9.36 -106.65,-29.84 -31.69,-21.36 -59.02,-55.56 -83.87,-104.73 -24.86,-49.14 -47.87,-115.67 -69.94,-198.02 -21.09,-78.72 -35.3,-146.3 -42.96,-203.95 -7.66,-57.67 -8.86,-110.56 -1.15,-159.35 7.69,-48.79 20.55,-97.67 38.59,-146.63 18.91,-50.5 44.45,-105.37 79.59,-168l567.86 -1063.37c114.19,-208.43 202.33,-393 262.55,-555.8 60.54,-161.61 103.42,-306.78 127.73,-434.02 24.33,-127.23 33.07,-239.91 28.35,-339.89 -4.72,-99.98 -19.37,-193.41 -42.08,-278.18 -20.77,-77.5 -52.68,-148.13 -96.93,-211.56 -42.72,-62.54 -96.48,-113.04 -158.88,-152.14 -62.39,-39.08 -133.66,-62.83 -215.65,-73.31 -80.45,-9.59 -170.33,-1.09 -270.85,25.84 -139.28,37.32 -257.93,88.58 -356.31,152.59 -98.37,63.99 -182.12,129.27 -251.58,194.61 -70.35,66.89 -127.45,125.01 -172.21,175.95 -44.44,52.14 -81.97,81.67 -112.24,89.78 -21.8,5.84 -41.91,3.44 -61.55,-6.87 -19.32,-9.1 -37.92,-30.07 -56.37,-60.18 -17.55,-31.63 -37.72,-72.96 -59.03,-128.26 -20.98,-54.09 -41.58,-121.25 -62.99,-201.19 -14.6,-54.48 -25.72,-100.84 -32.15,-139.35 -6.11,-37.31 -8.49,-70.41 -8.69,-100.21 -1.08,-28.28 2.12,-55.09 8.72,-78.93 6.91,-22.62 21,-52.35 42.28,-89.21 22.82,-35.97 67.58,-86.9 134.62,-151.6 67.92,-66.21 153.44,-134.57 258.68,-206.9 105.22,-72.33 222.98,-141.51 355.67,-208.22 131.82,-65.19 273.25,-118.65 424.63,-159.21 239.8,-64.25 456.22,-89.79 651.67,-77.26 194.26,12.85 365.6,56.5 513.17,132.48 147.57,75.99 268.84,179.78 366.56,311.95 97.72,132.17 169.3,283.04 215.05,453.8 39.91,148.95 64.65,299.38 75.4,450.96 9.87,153.13 -7.92,324.04 -52.77,515.18 -45.16,189.93 -122.67,409.29 -231.97,655.35 -109.29,246.05 -263.12,539.09 -461.47,879.09l-389.51 692.37 1809.34 -484.81c24.22,-6.49 47.97,-5.07 71.24,4.27 24.15,7.82 46.95,25.08 69.59,51.45 22.32,25.17 42.4,61.34 62.64,107.83 20.25,46.49 39.46,103.65 56.99,169.04zm3341.35 -2086.89c66.52,248.26 82.31,481.56 48.56,699.59 -33.73,218.01 -111.92,415.5 -233.34,592.11 -121.74,175.4 -283.41,327.75 -484.68,458.27 -202.47,130.83 -437.7,231.5 -707.77,303.86 -141.69,37.97 -279.61,65.84 -411.64,81.74 -133.24,16.24 -253.24,23.72 -362.11,24.34 -109.19,-0.6 -199.89,-4.86 -272.76,-15.18 -71.65,-10.66 -121.09,-20.77 -145.33,-33.74 -25.45,-12.65 -45.18,-28.14 -60.38,-46.12 -15.54,-19.21 -29.62,-42.69 -43.46,-70.14 -14.16,-28.65 -27.86,-65.23 -42.28,-109.38 -14.44,-44.17 -29.92,-97.12 -46.48,-158.89 -17.85,-66.61 -30.35,-122.96 -37.83,-170.28 -7.49,-47.32 -10.28,-86.82 -6.84,-117.59 3.11,-31.98 9.69,-55.82 21.31,-70.61 10.08,-15.67 25.41,-26.28 44.79,-31.48 23.01,-6.16 62.91,-2.57 118.81,12.3 55.6,13.66 127.88,26.74 215.38,38.35 88.69,11.29 193.69,15.6 313.44,12.07 121.31,-2.64 261.73,-26 419.17,-68.19 138.05,-36.99 258.91,-84.95 364.08,-142.98 104.83,-59.24 187.29,-129.36 249.14,-213.44 60.63,-83.74 100.42,-177.47 117.16,-284.5 17.08,-105.82 8.7,-224.29 -27,-357.51 -30.17,-112.63 -75.6,-209.49 -134.41,-288.48 -58.82,-79 -134.64,-139.16 -227.48,-180.49 -91.64,-41.63 -202.06,-61.37 -331.28,-59.21 -129.22,2.18 -279.98,25.7 -451.96,71.77 -138.05,36.99 -260.85,77.69 -368.38,122.07 -109.05,43.51 -213.68,79.33 -312.98,105.94 -67.82,18.17 -122.02,14.52 -160.17,-11.59 -39.69,-27.02 -71.1,-86.1 -95.76,-178.13l-533.81 -1992.2c-25.31,-94.47 -25.31,-167.16 -0.01,-218.06 26.51,-51.24 79.13,-87.41 159.06,-108.82l2175.06 -582.81c20.6,-5.52 43.12,-3.77 66.39,5.58 21.74,8.46 44.86,26.91 65.08,53.95 21.77,27.92 42.17,65.28 62.16,115.75 19.69,49.24 38.34,109.14 57.48,180.6 37.97,141.69 53.45,247.88 45.2,318.88 -7.02,70.67 -34.92,111.9 -82.15,124.56l-1634.93 438.08 262.85 980.96c79.76,-31.76 160.48,-59.89 242.18,-84.38 80.49,-24.16 166.16,-48.41 255.77,-72.41 249.49,-66.85 477.69,-96.85 685.83,-90.31 209.34,6.21 394.34,47.5 555.31,125.07 162.18,77.26 298.81,189.93 412.62,338.56 113.49,147.41 199.31,332.11 258.38,552.52z"/>
 </g>
</svg>
